<svg width="80" height="80" viewBox="0 0 80 80" fill="none" xmlns="http://www.w3.org/2000/svg">
<path fill-rule="evenodd" clip-rule="evenodd" d="M58.698 76.7128C54.1723 76.69 53.6923 76.7357 54.4466 75.1357C55.0866 73.7871 55.5894 73.0329 55.978 72.0044C56.1151 71.6386 56.0008 71.2043 55.6808 70.9758C55.2923 70.6786 54.698 70.2443 53.9437 69.7414C51.7266 68.21 51.5894 67.9129 52.5951 67.1586C53.7837 66.2672 54.8123 66.3586 56.3437 67.5014C57.898 68.6672 57.8751 68.6672 58.6294 67.2044C59.3837 65.6958 60.3894 64.8958 61.4866 64.8958C64.6637 64.8958 62.9037 66.45 70.2637 75.73C71.978 77.9014 73.3723 79.2272 70.2637 78.93C68.7551 78.8157 65.5323 78.29 58.698 76.7128ZM46.1266 64.4157C42.2866 62.2443 40.938 60.37 42.6066 59.5929C44.0466 58.9071 44.3208 59.0672 47.5666 62.0615C50.4923 64.7358 49.5094 66.3129 46.1266 64.4157ZM36.8237 57.0329C35.018 55.3872 31.5437 50.9301 31.5437 50.2444C31.5437 48.5986 34.4923 48.4158 35.4523 50.0158C36.138 51.1129 39.4294 55.0672 40.1837 55.6844C41.1208 56.4386 40.298 57.4671 38.5608 57.7643C37.8751 57.8786 37.6466 57.7643 36.8237 57.0329ZM37.6008 48.9643C35.5894 48.4843 37.578 47.0215 40.1837 47.0443C42.9951 47.0901 43.9323 46.5415 45.3266 44.0958C46.378 42.2444 48.1608 41.9472 47.9323 43.6615C47.5208 46.8843 41.6008 49.9015 37.6008 48.9643ZM29.4866 44.8272C28.618 43.2272 29.898 38.0386 31.4294 36.9643C32.9151 35.9129 34.3323 36.2786 33.6694 37.5586C33.1208 38.6101 32.6866 40.7815 32.6866 42.4958C32.6866 44.7129 30.3551 46.4272 29.4866 44.8272ZM21.4408 41.6272C18.9723 40.0501 15.7723 35.1129 16.3666 33.7415C17.0752 32.0272 18.9952 32.4386 20.2752 34.6101C20.7324 35.3872 21.6923 36.8501 22.378 37.8558C25.098 41.7872 25.0294 41.6272 24.1151 42.0386C23.2008 42.4501 22.5837 42.3586 21.4408 41.6272ZM44.5951 38.3358C42.538 36.2329 38.6294 34.6101 36.4123 34.9072C34.6523 35.1586 35.7037 33.7186 37.738 33.1472C41.6466 32.0272 49.8066 36.6215 47.6808 38.7472C46.7666 39.6615 45.7837 39.5243 44.5951 38.3358ZM12.7551 27.9586C10.7437 25.8329 9.25806 20.4615 10.4238 19.5929C12.0466 18.4043 12.9381 18.8386 13.5095 21.1015C14.1723 23.6843 15.5437 26.7929 15.5437 27.4786C15.5437 28.6672 13.7151 28.9643 12.7551 27.9586ZM8.93806 13.9244C7.29234 10.1758 9.46373 1.70857 11.4523 1C12.778 0.519997 11.2923 1.01006 11.4523 6.9072C11.5209 9.85577 11.658 12.6215 11.7494 13.0558C12.1152 14.8158 9.66948 15.5929 8.93806 13.9244Z" fill="#7F56D9"/>
</svg>
