<svg width="80" height="80" viewBox="0 0 80 80" fill="none" xmlns="http://www.w3.org/2000/svg">
<path fill-rule="evenodd" clip-rule="evenodd" d="M14.7231 73.4134C15.1711 73.2854 16.6751 72.5815 18.0831 71.8775C24.4511 68.6775 32.8992 66.0855 37.8591 65.7975C41.4752 65.5735 42.8512 64.9335 41.8592 63.9415C40.5792 62.6615 33.0911 63.3015 27.0431 65.2215C24.0991 66.1495 24.0992 66.1814 26.9472 64.0054C29.4752 62.0854 35.4911 56.6775 35.9392 55.9095C37.2192 53.6375 31.6191 54.2455 29.4431 56.5815C28.4832 57.6375 26.0831 59.6854 24.9631 60.6454C28.7391 52.8694 29.9552 50.6295 28.3232 50.0215C25.7311 49.0295 24.2271 50.5655 20.3551 58.1815C18.5311 61.7655 17.0911 64.0375 14.6911 67.1415C9.95515 73.2535 9.95515 74.8854 14.7231 73.4134ZM42.6912 50.5975C46.1472 47.1414 48.6431 41.5094 47.2992 40.1974C46.0512 38.9494 42.7872 41.2854 41.0592 44.7414C40.4192 45.9894 39.2672 48.0055 38.4992 49.2215C36.0992 52.9015 39.2992 53.9895 42.6912 50.5975ZM39.9712 42.5334C41.0272 41.2534 39.9392 39.6854 37.0272 39.4614C29.3472 37.3814 33.2511 28.7734 37.2831 26.6294C39.6831 25.3494 38.8192 24.2934 35.7792 24.7734C27.9392 26.0214 25.0271 36.1014 31.1391 40.7414C33.8912 42.8534 38.8832 43.8454 39.9712 42.5334ZM56.7391 35.7814C58.3391 34.5974 61.3151 30.8854 61.6671 29.6374C62.3711 27.0454 58.0191 27.5254 55.9071 30.2454C54.6911 31.8134 52.0671 35.3014 51.7151 35.8454C50.6271 37.3494 54.6591 37.3174 56.7391 35.7814ZM49.3151 35.7814C52.1311 32.7734 47.8112 24.4214 43.4592 24.4214C40.8032 24.4214 40.4832 25.5094 42.3712 28.3574C43.6832 30.3414 44.3552 32.1014 45.0272 35.1414C45.3792 36.8694 47.9392 37.2534 49.3151 35.7814ZM64.003 21.3494C66.627 20.8374 70.275 9.15736 68.483 7.01337C66.915 5.15736 63.3312 6.85336 63.0112 9.60536C62.8832 10.6294 62.627 12.1974 62.403 13.0934C61.187 18.3094 60.7711 20.7094 61.0271 20.9654C61.4111 21.3174 63.011 21.5414 64.003 21.3494Z" fill="#7F56D9"/>
</svg>
