<svg width="80" height="80" viewBox="0 0 80 80" fill="none" xmlns="http://www.w3.org/2000/svg">
<path fill-rule="evenodd" clip-rule="evenodd" d="M13.9248 9.26042C11.8128 10.5404 8.35693 22.6043 10.0529 22.7643C11.2049 22.8603 12.5169 22.0284 13.1889 20.7484C13.7009 19.8204 16.6448 9.19639 16.4848 8.90839C16.2288 8.42839 14.9808 8.62042 13.9248 9.26042ZM8.22886 37.4205C7.84486 45.2925 9.06093 47.6602 11.9729 44.5242C12.9649 43.4362 13.3488 35.7562 12.9648 31.5323C12.5808 27.1483 8.70886 27.8524 8.22886 37.4205ZM12.9968 53.5805C10.5968 55.2445 12.1328 60.7805 16.0368 64.6205C20.3248 68.8445 25.6369 70.5082 27.9089 68.3322C29.2849 67.0202 29.1569 66.6682 26.8209 65.6122C21.2849 63.1162 18.0529 59.6925 16.4209 54.6685C15.9409 53.1325 14.3408 52.6205 12.9968 53.5805ZM49.7967 53.6442C49.1247 54.2202 49.125 54.3162 49.541 56.1722C49.765 57.2282 50.373 60.0765 50.373 60.0765L45.4447 61.7085C40.5167 63.3405 35.365 64.6522 33.861 64.6522C32.261 64.6522 33.0607 65.8685 35.9087 67.6605C38.1487 69.1005 45.381 67.4045 51.333 64.1085C51.557 63.9805 52.8687 68.3325 52.9647 69.5805C53.1247 71.7565 57.125 72.8765 59.941 67.7885C61.477 65.0365 68.1327 58.2845 70.2767 57.3565C73.1247 56.1085 71.5887 54.5722 67.8767 54.8922C62.0207 55.4042 51.7807 51.9162 49.7967 53.6442Z" fill="#7F56D9"/>
</svg>
