<svg width="50" height="50" viewBox="0 0 50 50" fill="none" xmlns="http://www.w3.org/2000/svg">
<circle cx="25" cy="25" r="25" fill="white"/>
<path d="M34.9907 22C34.9904 21.7401 34.8982 21.4841 34.7071 21.2929L26.7071 13.2929C26.5159 13.1011 26.2599 13.0081 26 13.0081V13H20C17.2432 13 15 15.2432 15 18V32C15 34.7568 17.2432 37 20 37H30C32.7568 37 35 34.7568 35 32V22H34.9907ZM30 31C30 31.5527 29.5522 32 29 32H21C20.4478 32 20 31.5527 20 31C20 30.4473 20.4478 30 21 30H29C29.5522 30 30 30.4473 30 31ZM30 27C30 27.5527 29.5522 28 29 28H21C20.4478 28 20 27.5527 20 27C20 26.4473 20.4478 26 21 26H29C29.5522 26 30 26.4473 30 27ZM20 23C20 22.4473 20.4478 22 21 22H23C23.5522 22 24 22.4473 24 23C24 23.5527 23.5522 24 23 24H21C20.4478 24 20 23.5527 20 23Z" fill="#7F56D9"/>
<path d="M27 16.4141L31.5859 21H30C28.3457 21 27 19.6543 27 18V16.4141ZM30 31C30 31.5527 29.5522 32 29 32H21C20.4477 32 20 31.5527 20 31C20 30.4473 20.4477 30 21 30H29C29.5522 30 30 30.4473 30 31ZM30 27C30 27.5527 29.5522 28 29 28H21C20.4477 28 20 27.5527 20 27C20 26.4473 20.4477 26 21 26H29C29.5522 26 30 26.4473 30 27ZM20 23C20 22.4472 20.4477 22 21 22H23C23.5522 22 24 22.4472 24 23C24 23.5528 23.5522 24 23 24H21C20.4477 24 20 23.5528 20 23Z" fill="white"/>
</svg>
