<svg width="32" height="32" viewBox="0 0 32 32" fill="none" xmlns="http://www.w3.org/2000/svg">
<path d="M18.064 1.7486C16.9972 0.44545 15.0043 0.445454 13.9373 1.7486L12.6149 3.36387L10.662 2.62623C9.08646 2.03114 7.36062 3.02755 7.0882 4.68958L6.75057 6.74966L4.69047 7.08731C3.02846 7.35971 2.03203 9.08555 2.62714 10.6611L3.36476 12.614L1.7495 13.9364C0.44635 15.0034 0.446354 16.9963 1.74951 18.0632L3.36476 19.3856L2.62714 21.3386C2.03203 22.914 3.02844 24.6399 4.69047 24.9123L6.75057 25.25L7.0882 27.31C7.36062 28.972 9.08646 29.9686 10.662 29.3734L12.6149 28.6358L13.9373 30.2511C15.0043 31.5542 16.9972 31.5542 18.064 30.2511L19.3865 28.6358L21.3395 29.3734C22.9149 29.9686 24.6408 28.972 24.9132 27.31L25.2509 25.25L27.3109 24.9123C28.9729 24.6399 29.9695 22.914 29.3743 21.3386L28.6367 19.3856L30.252 18.0631C31.5551 16.9963 31.5551 15.0034 30.252 13.9364L28.6367 12.614L29.3743 10.6611C29.9695 9.08557 28.9729 7.35971 27.3109 7.08731L25.2509 6.74966L24.9132 4.68958C24.6408 3.02755 22.9149 2.03112 21.3395 2.62623L19.3865 3.36387L18.064 1.7486Z" fill="#7F56D9"/>
<path fill-rule="evenodd" clip-rule="evenodd" d="M24.2763 12.276L14.9429 21.6093C14.6928 21.8593 14.3537 21.9999 14.0001 21.9999C13.6465 21.9999 13.3073 21.8593 13.0573 21.6093L7.72397 16.276L9.60958 14.3904L14.0001 18.7809L22.3907 10.3904L24.2763 12.276Z" fill="white"/>
</svg>
