<svg width="32" height="32" viewBox="0 0 32 32" fill="none" xmlns="http://www.w3.org/2000/svg">
<path d="M24.3319 14.7231H23.8933C23.6241 14.7201 23.3648 14.8222 23.1733 15.0067C22.9818 15.1912 22.8741 15.4428 22.8741 15.7053C22.874 16.2561 23.3285 16.7043 23.8933 16.7106H24.3319C24.8948 16.7106 25.3511 16.2657 25.3511 15.7169C25.3511 15.1681 24.8948 14.7231 24.3319 14.7231ZM16.5096 9.18823H8.98371C8.42538 9.1882 7.97094 9.62611 7.96445 10.1704C7.96445 10.7211 8.41887 11.1694 8.98371 11.1757H16.5096C17.0726 11.1757 17.5289 10.7308 17.5289 10.182C17.5289 9.63315 17.0726 9.18823 16.5096 9.18823Z" fill="white"/>
<path d="M22.022 4C26.6206 4 29.3346 6.64612 29.3346 11.1757H23.6932V11.222C21.0749 11.222 18.9524 13.2913 18.9524 15.844C18.9524 18.3967 21.0749 20.4661 23.6932 20.4661H29.3346V20.882C29.3346 25.3539 26.6206 28 22.022 28H9.98056C5.38204 28 2.66797 25.3539 2.66797 20.882V11.118C2.66797 6.64612 5.38204 4 9.98056 4H22.022ZM28.3391 13.1632C28.8889 13.1632 29.3346 13.5978 29.3346 14.1338V17.5079C29.3282 18.0414 28.8862 18.4723 28.3391 18.4786H23.7998C22.4743 18.496 21.3153 17.6112 21.0146 16.3524C20.8641 15.5711 21.0754 14.7648 21.5921 14.1496C22.1087 13.5345 22.8778 13.1734 23.6932 13.1632H28.3391ZM24.3332 14.7232H23.8946C23.6254 14.7201 23.3661 14.8222 23.1746 15.0067C22.9831 15.1912 22.8754 15.4428 22.8754 15.7053C22.8753 16.2561 23.3298 16.7043 23.8946 16.7106H24.3332C24.8961 16.7106 25.3524 16.2657 25.3524 15.7169C25.3524 15.1681 24.8961 14.7232 24.3332 14.7232ZM16.5109 9.18825H8.98501C8.42668 9.18822 7.97224 9.62613 7.96575 10.1704C7.96575 10.7212 8.42017 11.1694 8.98501 11.1757H16.5109C17.0739 11.1757 17.5302 10.7308 17.5302 10.182C17.5302 9.63317 17.0739 9.18825 16.5109 9.18825Z" fill="#7F56D9"/>
</svg>
