<svg width="903" height="262" viewBox="0 0 903 262" fill="none" xmlns="http://www.w3.org/2000/svg">
<path d="M0 4.71913C0 4.71913 59.8125 2.46703 95.5711 13.7222C130.802 24.8112 147.983 38.5785 177.984 60.1227C205.221 79.6827 216.6 95.4789 242.39 116.911C266.983 137.348 279.272 151.194 306.797 167.467C337.708 185.743 356.994 194.004 391.98 202.094C435.215 212.091 461.417 210.117 505.557 205.557C550.123 200.953 574.462 192.438 617.057 178.548C653.632 166.621 673.214 157.231 708.473 141.843C745.506 125.681 764.544 112.76 801.966 97.52C839.829 82.1005 861.578 74.4164 901 63.5854" stroke="#D4D3FE" stroke-width="8.31053"/>
<path d="M0 174.248C0 174.248 50.7851 210.196 86.6829 226.961C117.492 241.349 135.211 250.247 168.68 256.246C204.478 262.661 225.625 259.929 261.806 256.246C300.902 252.266 322.694 246.887 360.202 235.161C409.544 219.734 434.376 203.324 480.856 180.691C526.57 158.43 550.346 142.258 596.238 120.364C634.135 102.285 654.791 90.2749 694.634 77.023C725.534 66.7456 743.266 61.4164 775.46 56.5236C795.667 53.4527 807.155 51.3112 827.587 51.8381C843.47 52.2476 868 56.5236 868 56.5236" stroke="white" stroke-width="2.34278"/>
</svg>
