<svg width="585" height="251" viewBox="0 0 585 251" fill="none" xmlns="http://www.w3.org/2000/svg">
<path d="M1 -5.81603C1 -5.81603 60.8125 -8.06813 96.5711 3.18704C131.802 14.2761 148.983 28.0434 178.984 49.5875C206.221 69.1475 217.6 84.9437 243.39 106.376C267.983 126.813 280.272 140.658 307.797 156.932C338.708 175.207 357.994 183.469 392.98 191.559C436.215 201.556 462.417 199.582 506.557 195.022C551.123 190.418 575.462 181.903 618.057 168.013C654.632 156.086 674.214 146.695 709.473 131.308C746.506 115.146 765.544 102.225 802.966 86.9849C840.829 71.5653 862.578 63.8813 902 53.0502" stroke="#D4D3FE" stroke-width="8.31053"/>
<path d="M1 163.713C1 163.713 51.7851 199.661 87.6829 216.426C118.492 230.814 136.211 239.712 169.68 245.71C205.478 252.126 226.625 249.393 262.806 245.71C301.902 241.731 323.694 236.352 361.202 224.625C410.544 209.199 435.376 192.789 481.856 170.156C527.57 147.895 551.346 131.723 597.238 109.829C635.135 91.7495 655.791 79.7398 695.634 66.4878C726.534 56.2104 744.266 50.8813 776.46 45.9885C796.667 42.9175 808.155 40.7761 828.587 41.3029C844.47 41.7125 869 45.9885 869 45.9885" stroke="white" stroke-width="2.34278"/>
</svg>
