<svg width="50" height="50" viewBox="0 0 50 50" fill="none" xmlns="http://www.w3.org/2000/svg">
<circle cx="25" cy="25" r="25" fill="#FFE3DC"/>
<g clip-path="url(#clip0_106_58)">
<path d="M40.3984 18.2041C40.3984 16.2246 38.7886 14.6143 36.8096 14.6143H33.1284V14.1338C33.1284 11.5791 31.0498 9.5 28.4946 9.5H21.5073C18.9521 9.5 16.8735 11.5791 16.8735 14.1338V14.6143H13.1924C11.2134 14.6143 9.60352 16.2246 9.60352 18.2041V19.831C9.60352 21.9765 10.3759 23.9437 11.6548 25.4736V34.8213C11.6548 37.9521 14.2021 40.5 17.3335 40.5H32.6685C35.7998 40.5 38.3472 37.9521 38.3472 34.8213V25.4736C39.6261 23.9437 40.3984 21.9765 40.3984 19.831V18.2041ZM19.8735 14.1338C19.8735 13.2334 20.6064 12.5 21.5073 12.5H28.4946C29.3955 12.5 30.1284 13.2334 30.1284 14.1338V14.6143H19.8735V14.1338ZM12.6035 18.2041C12.6035 17.8789 12.8677 17.6143 13.1924 17.6143H36.8096C37.1343 17.6143 37.3984 17.8789 37.3984 18.2041V19.831C37.3984 21.3829 36.7835 22.7911 35.7893 23.8346C35.7859 23.8379 35.783 23.8418 35.7796 23.8452C34.7209 24.9509 33.2343 25.6436 31.5864 25.6436H30.8472V25.2334C30.8472 24.4053 30.1758 23.7334 29.3472 23.7334C28.5186 23.7334 27.8472 24.4053 27.8472 25.2334V25.6436H22.1548V25.2334C22.1548 24.4053 21.4834 23.7334 20.6548 23.7334C19.8262 23.7334 19.1548 24.4053 19.1548 25.2334V25.6436H18.4155C16.7676 25.6436 15.2811 24.9509 14.2223 23.8452C14.219 23.8418 14.2161 23.838 14.2127 23.8346C13.2184 22.7911 12.6035 21.3829 12.6035 19.8311V18.2041ZM32.6685 37.5H17.3335C15.8564 37.5 14.6548 36.2978 14.6548 34.8213V27.7888C15.7972 28.3311 17.0691 28.6436 18.4155 28.6436H19.1548V29.0537C19.1548 29.8819 19.8262 30.5537 20.6548 30.5537C21.4834 30.5537 22.1548 29.8818 22.1548 29.0537V28.6436H27.8472V29.0537C27.8472 29.8819 28.5186 30.5537 29.3472 30.5537C30.1758 30.5537 30.8472 29.8818 30.8472 29.0537V28.6436H31.5864C32.9329 28.6436 34.2047 28.3311 35.3472 27.7888V34.8213C35.3472 36.2978 34.1455 37.5 32.6685 37.5Z" fill="#F4876B"/>
</g>
<defs>
<clipPath id="clip0_106_58">
<rect width="32" height="32" fill="white" transform="translate(9 9)"/>
</clipPath>
</defs>
</svg>
