<svg width="50" height="50" viewBox="0 0 81 81" fill="none" xmlns="http://www.w3.org/2000/svg">
<path d="M40.498 4.35986C45.2256 4.35986 49.9069 5.29103 54.2747 7.1002C58.6424 8.90937 62.611 11.5611 65.9539 14.904C69.2968 18.2469 71.9485 22.2155 73.7577 26.5833C75.5669 30.951 76.498 35.6323 76.498 40.3599C76.498 45.0875 75.5669 49.7688 73.7577 54.1365C71.9485 58.5042 69.2968 62.4728 65.9539 65.8157C62.611 69.1586 58.6424 71.8104 54.2746 73.6195C49.9069 75.4287 45.2256 76.3599 40.498 76.3599C35.7704 76.3599 31.0892 75.4287 26.7214 73.6195C22.3537 71.8104 18.3851 69.1586 15.0422 65.8157C11.6993 62.4728 9.04754 58.5042 7.23838 54.1365C5.42921 49.7687 4.49804 45.0874 4.49805 40.3598C4.49805 35.6323 5.42922 30.951 7.23839 26.5832C9.04756 22.2155 11.6993 18.2469 15.0422 14.904C18.3851 11.5611 22.3537 8.90936 26.7215 7.10019C31.0892 5.29102 35.7705 4.35986 40.4981 4.35986L40.498 4.35986Z" stroke="#EAECF0" stroke-width="8" stroke-linecap="round" stroke-linejoin="round"/>
<path d="M40.498 4.35986C48.1005 4.35986 55.5078 6.76664 61.6583 11.2353C67.8088 15.7039 72.3868 22.0049 74.7361 29.2353C77.0854 36.4656 77.0854 44.2541 74.7361 51.4845C72.3868 58.7148 67.8088 65.0159 61.6583 69.4845" stroke="#7F56D9" stroke-width="8" stroke-linecap="round" stroke-linejoin="round"/>
</svg>
