<svg width="50" height="50" viewBox="0 0 50 50" fill="none" xmlns="http://www.w3.org/2000/svg">
<rect x="0.359375" y="0.0561523" width="48.96" height="48.96" rx="12.24" fill="#7F56D9"/>
<path d="M27.6992 34.4661H21.3992L20.6492 32.4411H9.32422V13.1661C9.32422 12.2661 10.0742 11.5161 10.9742 11.5161H39.0242C39.9242 11.5161 40.6742 12.2661 40.6742 13.1661V32.5161H29.1992L27.6992 34.4661ZM22.2242 33.3411H27.1742L28.6742 31.3161H39.5492V13.1661C39.5492 12.8661 39.3242 12.6411 39.0242 12.6411H10.9742C10.6742 12.6411 10.4492 12.8661 10.4492 13.1661V31.3911H21.4742L22.2242 33.3411Z" fill="white"/>
<path d="M37.6004 36.7162H12.4004C9.70039 36.7162 7.52539 34.5412 7.52539 31.8412V31.2412H21.4004L22.1504 33.2662H27.1004L28.6004 31.2412H42.4004V31.8412C42.4754 34.5412 40.2254 36.7162 37.6004 36.7162ZM8.72539 32.4412C9.02539 34.2412 10.5254 35.5912 12.4004 35.5912H37.5254C39.4004 35.5912 40.9754 34.2412 41.2004 32.4412H29.2004L27.7004 34.4662H21.4004L20.6504 32.4412H8.72539Z" fill="white"/>
<path d="M19.525 15.4912H13.75V20.5162H19.525V15.4912Z" fill="white"/>
<path d="M20.0504 21.0411H13.1504V14.8911H20.0504V21.0411ZM14.2754 19.9161H18.9254V16.0161H14.2754V19.9161Z" fill="white"/>
<path d="M19.525 23.4414H13.75V28.4664H19.525V23.4414Z" fill="white"/>
<path d="M20.0504 29.066H13.1504V22.916H20.0504V29.066ZM14.2754 27.941H18.9254V24.041H14.2754V27.941Z" fill="white"/>
<path d="M36.55 17.3662H23.125V18.4912H36.55V17.3662Z" fill="white"/>
<path d="M36.55 25.3911H23.125V26.5161H36.55V25.3911Z" fill="white"/>
</svg>
