<svg width="50" height="50" viewBox="0 0 50 50" fill="none" xmlns="http://www.w3.org/2000/svg">
<circle cx="25" cy="25" r="25" fill="#F5D9E5"/>
<path d="M26 13V12C26 11.7348 25.8946 11.4804 25.7071 11.2929C25.5196 11.1054 25.2652 11 25 11C24.7348 11 24.4804 11.1054 24.2929 11.2929C24.1054 11.4804 24 11.7348 24 12V13C24 13.2652 24.1054 13.5196 24.2929 13.7071C24.4804 13.8946 24.7348 14 25 14C25.2652 14 25.5196 13.8946 25.7071 13.7071C25.8946 13.5196 26 13.2652 26 13ZM16.51 15.1C16.3187 14.9362 16.0726 14.8506 15.8209 14.8603C15.5693 14.87 15.3305 14.9743 15.1524 15.1524C14.9743 15.3305 14.87 15.5693 14.8603 15.8209C14.8506 16.0726 14.9362 16.3187 15.1 16.51L15.81 17.22C16.0013 17.3838 16.2474 17.4694 16.4991 17.4597C16.7507 17.45 16.9895 17.3457 17.1676 17.1676C17.3457 16.9895 17.45 16.7507 17.4597 16.4991C17.4694 16.2474 17.3838 16.0013 17.22 15.81L16.51 15.1ZM13 26C13.2652 26 13.5196 25.8946 13.7071 25.7071C13.8946 25.5196 14 25.2652 14 25C14 24.7348 13.8946 24.4804 13.7071 24.2929C13.5196 24.1054 13.2652 24 13 24H12C11.7348 24 11.4804 24.1054 11.2929 24.2929C11.1054 24.4804 11 24.7348 11 25C11 25.2652 11.1054 25.5196 11.2929 25.7071C11.4804 25.8946 11.7348 26 12 26H13ZM15.1 34.9C15.2874 35.0862 15.5408 35.1908 15.805 35.1908C16.0692 35.1908 16.3226 35.0862 16.51 34.9L17.22 34.19C17.3838 33.9987 17.4694 33.7526 17.4597 33.5009C17.45 33.2493 17.3457 33.0105 17.1676 32.8324C16.9895 32.6543 16.7507 32.55 16.4991 32.5403C16.2474 32.5306 16.0013 32.6162 15.81 32.78L15.1 33.49C14.9137 33.6774 14.8092 33.9308 14.8092 34.195C14.8092 34.4592 14.9137 34.7126 15.1 34.9ZM34.19 32.78C33.9987 32.6162 33.7526 32.5306 33.5009 32.5403C33.2493 32.55 33.0105 32.6543 32.8324 32.8324C32.6543 33.0105 32.55 33.2493 32.5403 33.5009C32.5306 33.7526 32.6162 33.9987 32.78 34.19L33.49 34.9C33.6813 35.0638 33.9274 35.1494 34.1791 35.1397C34.4307 35.13 34.6695 35.0257 34.8476 34.8476C35.0257 34.6695 35.13 34.4307 35.1397 34.1791C35.1494 33.9274 35.0638 33.6813 34.9 33.49L34.19 32.78ZM38 24H37C36.7348 24 36.4804 24.1054 36.2929 24.2929C36.1054 24.4804 36 24.7348 36 25C36 25.2652 36.1054 25.5196 36.2929 25.7071C36.4804 25.8946 36.7348 26 37 26H38C38.2652 26 38.5196 25.8946 38.7071 25.7071C38.8946 25.5196 39 25.2652 39 25C39 24.7348 38.8946 24.4804 38.7071 24.2929C38.5196 24.1054 38.2652 24 38 24ZM34.9 15.1C34.7126 14.9137 34.4592 14.8092 34.195 14.8092C33.9308 14.8092 33.6774 14.9137 33.49 15.1L32.78 15.81C32.6753 15.8996 32.5903 16.01 32.5303 16.134C32.4703 16.2581 32.4365 16.3932 32.4312 16.5309C32.4259 16.6687 32.4491 16.806 32.4994 16.9343C32.5496 17.0626 32.6259 17.1792 32.7234 17.2766C32.8208 17.3741 32.9374 17.4504 33.0657 17.5006C33.194 17.5509 33.3313 17.5741 33.4691 17.5688C33.6068 17.5635 33.7419 17.5297 33.866 17.4697C33.99 17.4097 34.1004 17.3247 34.19 17.22L34.9 16.51C35.0863 16.3226 35.1908 16.0692 35.1908 15.805C35.1908 15.5408 35.0863 15.2874 34.9 15.1ZM16 25C16.0022 26.4778 16.3683 27.9324 17.0659 29.2352C17.7635 30.538 18.7712 31.649 20 32.47V38C20 38.2652 20.1054 38.5196 20.2929 38.7071C20.4804 38.8946 20.7348 39 21 39H29C29.2652 39 29.5196 38.8946 29.7071 38.7071C29.8946 38.5196 30 38.2652 30 38V32.47C31.2933 31.6059 32.3406 30.4213 33.0397 29.0318C33.7388 27.6423 34.0659 26.0954 33.989 24.5419C33.9121 22.9883 33.4339 21.4812 32.601 20.1676C31.7682 18.8539 30.6091 17.7785 29.2368 17.0463C27.8644 16.3141 26.3258 15.95 24.7709 15.9896C23.2159 16.0292 21.6978 16.4711 20.3645 17.2723C19.0313 18.0734 17.9284 19.2064 17.1635 20.5607C16.3986 21.9151 15.9977 23.4446 16 25ZM22 37V35H28V37H22ZM25 18C26.5402 18.0008 28.0372 18.5096 29.2589 19.4476C30.4807 20.3855 31.3589 21.7002 31.7576 23.188C32.1563 24.6757 32.0532 26.2534 31.4643 27.6766C30.8753 29.0998 29.8334 30.289 28.5 31.06C28.3474 31.1481 28.2208 31.275 28.133 31.4277C28.0452 31.5805 27.9993 31.7538 28 31.93V33H26V27H28C28.2652 27 28.5196 26.8946 28.7071 26.7071C28.8946 26.5196 29 26.2652 29 26C29 25.7348 28.8946 25.4804 28.7071 25.2929C28.5196 25.1054 28.2652 25 28 25H22C21.7348 25 21.4804 25.1054 21.2929 25.2929C21.1054 25.4804 21 25.7348 21 26C21 26.2652 21.1054 26.5196 21.2929 26.7071C21.4804 26.8946 21.7348 27 22 27H24V33H22V31.92C22.0007 31.7438 21.9548 31.5705 21.867 31.4177C21.7792 31.265 21.6526 31.1381 21.5 31.05C20.1715 30.2769 19.1344 29.088 18.5489 27.6668C17.9633 26.2457 17.8617 24.6713 18.2599 23.1867C18.6581 21.7021 19.5338 20.3898 20.752 19.4524C21.9701 18.515 23.4629 18.0046 25 18Z" fill="#B4708D"/>
</svg>
