<svg width="50" height="50" viewBox="0 0 50 50" fill="none" xmlns="http://www.w3.org/2000/svg">
<circle cx="25" cy="25" r="25" fill="#FFEDC9"/>
<path d="M30.2733 9.62954C24.3937 8.73537 18.8697 12.5595 17.684 18.3419C17.4731 19.3752 17.1556 20.2117 16.7161 20.8988C16.6771 20.9608 16.6419 21.0258 16.6116 21.0927L14.4816 25.8329C14.2794 26.2837 14.3116 26.8042 14.5675 27.2262C14.8243 27.649 15.2717 27.9176 15.7649 27.946L18.1919 28.0837V30.7597C18.1919 32.087 19.2711 33.1662 20.5974 33.1662H21.9697V36.3658C21.9697 37.194 22.6416 37.8659 23.4698 37.8659H33.5177C34.3459 37.8659 35.0179 37.194 35.0179 36.3658C35.0179 33.7542 35.8422 29.7928 37.6822 26.8277C37.6832 26.8267 37.6832 26.8257 37.6842 26.8247C39.368 24.3694 39.9784 21.3764 39.4012 18.3888C39.4012 18.3883 39.4012 18.3883 39.4012 18.3883C38.5241 13.8487 34.8558 10.3288 30.2733 9.62954ZM35.1849 25.1639C35.1605 25.1991 35.1381 25.2357 35.1166 25.2728C33.4826 27.9167 32.3516 31.5391 32.0801 34.8656H24.97V32.5714C24.97 31.2451 23.8907 30.1659 22.5635 30.1659H21.1922V27.5221C21.1922 26.2475 20.1951 25.1927 18.9224 25.12L18.1118 25.0741L19.3053 22.418C19.9147 21.437 20.3464 20.2991 20.6238 18.944C21.4881 14.7287 25.5354 11.9393 29.82 12.5957C33.0997 13.0957 35.8276 15.7122 36.4556 18.9572C36.8814 21.1649 36.4302 23.3693 35.1849 25.1639ZM13.5879 32.4015C13.5879 35.102 15.7854 37.2995 18.4859 37.2995C19.3141 37.2995 19.986 36.6275 19.986 35.7993C19.986 34.9711 19.3141 34.2992 18.4859 34.2992C17.4399 34.2992 16.5882 33.4475 16.5882 32.4015C16.5882 31.5733 15.9163 30.9013 15.0881 30.9013C14.2598 30.9013 13.5879 31.5733 13.5879 32.4015Z" fill="#F1BF5A"/>
<path d="M11.8869 32.2305C11.0587 32.2305 10.3867 32.9025 10.3867 33.7306C10.3867 37.4634 13.4232 40.4999 17.155 40.4999C17.9833 40.4999 18.6552 39.828 18.6552 38.9998C18.6552 38.1716 17.9833 37.4996 17.155 37.4996C15.0777 37.4996 13.3871 35.809 13.3871 33.7307C13.3871 32.9025 12.7151 32.2305 11.8869 32.2305Z" fill="#F1BF5A"/>
</svg>
