<svg width="50" height="50" viewBox="0 0 50 50" fill="none" xmlns="http://www.w3.org/2000/svg">
<rect x="0.320312" y="0.700439" width="48.96" height="48.96" rx="12.24" fill="#7F56D9"/>
<g clip-path="url(#clip0_106_58)">
<path d="M37.2319 30.5992H36.1481V29.6429H37.2319C37.9969 29.6429 38.6344 29.0054 38.6344 28.2404V21.5467C38.6344 20.3354 37.6144 19.3154 36.4031 19.3154H29.3906C28.1794 19.3154 27.1594 20.3354 27.1594 21.5467V28.2404C27.1594 29.0054 27.7969 29.6429 28.5619 29.6429H29.6456V30.5992H28.5619C27.2231 30.5992 26.2031 29.5154 26.2031 28.2404V21.5467C26.2031 19.7617 27.6056 18.3592 29.3906 18.3592H36.4669C38.2519 18.3592 39.6544 19.7617 39.6544 21.5467V28.2404C39.6544 29.5792 38.5706 30.5992 37.2319 30.5992ZM32.8969 17.3392C30.9844 17.3392 29.3906 15.7454 29.3906 13.8329C29.3906 11.9204 30.9844 10.3267 32.8969 10.3267C34.8094 10.3267 36.4031 11.9204 36.4031 13.8329C36.4031 15.7454 34.8731 17.3392 32.8969 17.3392ZM32.8969 11.3467C31.4944 11.3467 30.3469 12.4942 30.3469 13.8967C30.3469 15.2992 31.4944 16.4467 32.8969 16.4467C34.2994 16.4467 35.4469 15.2992 35.4469 13.8967C35.4469 12.4942 34.2994 11.3467 32.8969 11.3467Z" fill="#F5F5F4"/>
<path d="M34.553 40.034C33.9155 40.034 33.3417 39.7152 32.9592 39.269C32.5767 39.7152 32.003 40.034 31.3655 40.034C30.218 40.034 29.2617 39.0777 29.2617 37.9302V22.3752H30.218V37.9302C30.218 38.5677 30.728 39.0777 31.3655 39.0777C32.003 39.0777 32.4492 38.504 32.4492 37.9302V30.1527H33.4055V37.9302C33.4055 38.5677 33.9155 39.0777 34.553 39.0777C35.1905 39.0777 35.7005 38.5677 35.7005 37.9302V22.3752H36.6567V37.9302C36.6567 39.0777 35.7005 40.034 34.553 40.034Z" fill="#F5F5F4"/>
<path d="M27.6685 33.404H10.0098V13.3865H27.9873V14.3427H10.966V32.4477H27.6685V33.404Z" fill="#F5F5F4"/>
<path d="M24.5451 22.3115H13.5801V23.2678H24.5451V22.3115Z" fill="#F5F5F4"/>
<path d="M24.5451 25.5627H13.5801V26.519H24.5451V25.5627Z" fill="#F5F5F4"/>
<path d="M24.5451 28.8777H13.5801V29.8339H24.5451V28.8777Z" fill="#F5F5F4"/>
</g>
<defs>
<clipPath id="clip0_106_58">
<rect width="30.6" height="30.6" fill="white" transform="translate(9.5 9.88037)"/>
</clipPath>
</defs>
</svg>
