<svg width="84" height="84" viewBox="0 0 84 84" fill="none" xmlns="http://www.w3.org/2000/svg">
<path d="M42.0001 83.2364C63.0873 83.2364 80.1819 66.1419 80.1819 45.0546C80.1819 23.9674 63.0873 6.8728 42.0001 6.8728C20.9128 6.8728 3.81824 23.9674 3.81824 45.0546C3.81824 66.1419 20.9128 83.2364 42.0001 83.2364Z" fill="#F4EBFF"/>
<path d="M14.5092 8.40006C15.7744 8.40006 16.8001 7.37438 16.8001 6.10915C16.8001 4.84391 15.7744 3.81824 14.5092 3.81824C13.2439 3.81824 12.2183 4.84391 12.2183 6.10915C12.2183 7.37438 13.2439 8.40006 14.5092 8.40006Z" fill="#00C99F"/>
<path d="M3.05458 73.3091C4.31982 73.3091 5.34549 72.2834 5.34549 71.0182C5.34549 69.753 4.31982 68.7273 3.05458 68.7273C1.78935 68.7273 0.763672 69.753 0.763672 71.0182C0.763672 72.2834 1.78935 73.3091 3.05458 73.3091Z" fill="#FF4D69"/>
<path d="M69.491 32.0728C70.7562 32.0728 71.7819 31.0471 71.7819 29.7819C71.7819 28.5166 70.7562 27.491 69.491 27.491C68.2257 27.491 67.2001 28.5166 67.2001 29.7819C67.2001 31.0471 68.2257 32.0728 69.491 32.0728Z" fill="#FFA100"/>
<path d="M80.9455 70.2545C82.2107 70.2545 83.2364 69.2289 83.2364 67.9636C83.2364 66.6984 82.2107 65.6727 80.9455 65.6727C79.6802 65.6727 78.6545 66.6984 78.6545 67.9636C78.6545 69.2289 79.6802 70.2545 80.9455 70.2545Z" fill="#00C99F"/>
<path d="M35.8909 74.0728H17.1971C11.1337 68.8998 6.84453 61.956 4.93311 54.2183L11.0422 43.955C11.3987 43.3552 11.9051 42.8585 12.5115 42.5135C13.118 42.1685 13.8037 41.9871 14.5015 41.9871C15.1992 41.9871 15.8849 42.1685 16.4914 42.5135C17.0979 42.8585 17.6042 43.3552 17.9607 43.955L35.8909 74.0728ZM79.0669 54.2183C77.1555 61.956 72.8664 68.8998 66.8029 74.0728H48.1091L66.0317 43.9703C66.3882 43.3705 66.8945 42.8737 67.501 42.5287C68.1075 42.1837 68.7932 42.0023 69.4909 42.0023C70.1887 42.0023 70.8744 42.1837 71.4809 42.5287C72.0873 42.8737 72.5937 43.3705 72.9502 43.9703L79.0669 54.2183Z" fill="#7F56D9"/>
<path d="M72.1026 68.544C68.5319 73.1203 63.9649 76.8221 58.7487 79.3683C53.5325 81.9144 47.8044 83.2378 42 83.2378C36.1956 83.2378 30.4675 81.9144 25.2513 79.3683C20.0352 76.8221 15.4681 73.1203 11.8975 68.544C28.6975 37.9986 31.9811 31.9735 32.0575 31.8895C32.2484 31.6528 35.4098 27.8499 41.9847 27.8499C48.5596 27.8499 51.7364 31.668 51.912 31.8895C52.0189 31.9735 55.2796 37.968 72.1026 68.544Z" fill="#6941C6"/>
<path d="M71.7819 68.9717C68.0471 73.6377 63.2673 77.36 57.8285 79.8379C52.3898 82.3159 46.4445 83.4801 40.4728 83.2364C40.348 81.6291 40.6165 80.0155 41.2552 78.5353C41.8938 77.055 42.8834 75.7525 44.1383 74.7405C45.3932 73.7284 46.8757 73.0372 48.4577 72.7266C50.0397 72.416 51.6735 72.4954 53.2179 72.9578C53.6319 71.9715 54.2706 71.0954 55.0829 70.3993C55.8952 69.7032 56.8588 69.2064 57.897 68.9483C58.9351 68.6903 60.0192 68.6781 61.0629 68.9128C62.1066 69.1476 63.0811 69.6227 63.9088 70.3004C66.2608 68.8512 69.0846 68.3747 71.7819 68.9717Z" fill="#7F96D1"/>
<path d="M43.5274 83.2364C37.5564 83.4746 31.6129 82.308 26.175 79.8304C20.7371 77.3529 15.9567 73.6335 12.2183 68.9717C14.901 68.3838 17.7071 68.8601 20.0455 70.3004C20.8732 69.6227 21.8477 69.1476 22.8914 68.9128C23.9351 68.6781 25.0192 68.6903 26.0574 68.9483C27.0955 69.2064 28.0591 69.7032 28.8714 70.3993C29.6838 71.0954 30.3224 71.9715 30.7364 72.9578C32.2837 72.4862 33.9227 72.3998 35.5109 72.7061C37.0992 73.0124 38.5885 73.7022 39.8494 74.7154C41.1102 75.7286 42.1044 77.0346 42.7454 78.5196C43.3864 80.0047 43.6549 81.6239 43.5274 83.2364Z" fill="#A5BCED"/>
<path d="M54.5924 8.49931L43.5273 2.29094C43.5273 1.88589 43.3664 1.49742 43.08 1.211C42.7936 0.924581 42.4051 0.763672 42.0001 0.763672C41.595 0.763672 41.2065 0.924581 40.9201 1.211C40.6337 1.49742 40.4728 1.88589 40.4728 2.29094V22.1455H43.5273V16.0364L54.5924 9.81276C54.7064 9.74515 54.8008 9.64905 54.8663 9.5339C54.9319 9.41876 54.9664 9.28854 54.9664 9.15604C54.9664 9.02353 54.9319 8.89331 54.8663 8.77817C54.8008 8.66303 54.7064 8.56692 54.5924 8.49931Z" fill="#FF4D69"/>
<path d="M51.9273 31.9124C51.5255 32.404 51.025 32.8057 50.4581 33.0916C49.8912 33.3776 49.2706 33.5413 48.6365 33.5722C48.0024 33.6032 47.3688 33.5007 46.7768 33.2713C46.1847 33.042 45.6475 32.6909 45.1997 32.2408C44.3419 31.3921 43.1839 30.916 41.9771 30.916C40.7704 30.916 39.6124 31.3921 38.7546 32.2408C38.3074 32.6833 37.773 33.028 37.1854 33.2529C36.5978 33.4778 35.9698 33.5779 35.3414 33.5471C34.713 33.5162 34.0979 33.3549 33.5352 33.0735C32.9725 32.7921 32.4745 32.3967 32.0728 31.9124L35.2342 26.1622C35.9052 24.9496 36.8887 23.9388 38.0826 23.2349C39.2764 22.531 40.6371 22.1598 42.023 22.1598C43.4089 22.1598 44.7695 22.531 45.9633 23.2349C47.1572 23.9388 48.1407 24.9496 48.8117 26.1622L51.9273 31.9124ZM23.6728 56.5092C23.6728 57.1167 23.4314 57.6994 23.0018 58.1291C22.5722 58.5587 21.9895 58.8001 21.3819 58.8001H16.8001C16.257 58.7953 15.7333 58.5977 15.3223 58.2426C14.9114 57.8875 14.64 57.398 14.5565 56.8614C14.473 56.3247 14.5829 55.7759 14.8666 55.3128C15.1502 54.8496 15.5892 54.5023 16.1051 54.3328C16.2524 53.6503 16.6291 53.0389 17.1723 52.6003C17.7156 52.1618 18.3928 51.9226 19.091 51.9226C19.7892 51.9226 20.4663 52.1618 21.0096 52.6003C21.5529 53.0389 21.9295 53.6503 22.0768 54.3328C22.5389 54.4799 22.9425 54.7699 23.2293 55.161C23.5161 55.5521 23.6714 56.0242 23.6728 56.5092ZM64.9091 41.2364C64.9091 42.0465 64.5873 42.8235 64.0145 43.3963C63.4417 43.9692 62.6647 44.291 61.8546 44.291H54.2182C53.4081 44.291 52.6312 43.9692 52.0583 43.3963C51.4855 42.8235 51.1637 42.0465 51.1637 41.2364C51.1637 40.4263 51.4855 39.6494 52.0583 39.0765C52.6312 38.5037 53.4081 38.1819 54.2182 38.1819C54.2182 37.1692 54.6205 36.1981 55.3366 35.482C56.0526 34.766 57.0238 34.3637 58.0364 34.3637C59.0491 34.3637 60.0202 34.766 60.7363 35.482C61.4523 36.1981 61.8546 37.1692 61.8546 38.1819C62.6647 38.1819 63.4417 38.5037 64.0145 39.0765C64.5873 39.6494 64.9091 40.4263 64.9091 41.2364Z" fill="white"/>
</svg>
