<svg width="84" height="84" viewBox="0 0 86 87" fill="none" xmlns="http://www.w3.org/2000/svg">
<path d="M47.1818 86.3636C68.2691 86.3636 85.3636 69.2691 85.3636 48.1818C85.3636 27.0946 68.2691 10 47.1818 10C26.0946 10 9 27.0946 9 48.1818C9 69.2691 26.0946 86.3636 47.1818 86.3636Z" fill="#F4EBFF"/>
<path fill-rule="evenodd" clip-rule="evenodd" d="M7.57056 76.2128C7.57056 76.2128 11.5488 58.695 18.1349 58.0741C22.7903 57.9088 26.3997 62.0379 25.9206 65.8599C25.2644 72.4513 7.57056 76.2128 7.57056 76.2128Z" fill="#E5D0FF"/>
<path d="M28.4665 27.8471C28.979 28.3597 29.81 28.3597 30.3226 27.8471C30.8352 27.3345 30.8352 26.5035 30.3226 25.9909C29.81 25.4784 28.979 25.4784 28.4665 25.9909C27.9539 26.5035 27.9539 27.3345 28.4665 27.8471Z" fill="#9A79E3"/>
<path d="M65.1694 42.7106C64.4693 42.5229 63.7496 42.9385 63.562 43.6386C63.3743 44.3388 63.7899 45.0585 64.49 45.2461C65.1902 45.4337 65.9099 45.0182 66.0975 44.318C66.2851 43.6179 65.8696 42.8982 65.1694 42.7106Z" fill="#9A79E3"/>
<path fill-rule="evenodd" clip-rule="evenodd" d="M30.2441 56.2169C31.3689 57.5294 32.2613 58.9784 32.6078 60.7135L30.5196 61.816L27.2739 58.6136M25.5374 56.9007L22.0107 53.4227L22.9688 51.1901C24.8956 51.6416 26.4666 52.6365 27.85 53.8269" fill="#9A79E3"/>
<path fill-rule="evenodd" clip-rule="evenodd" d="M32.4752 54.4504C33.8887 56.1934 34.9322 58.1148 35.2892 59.9012C49.2109 55.2602 71.4853 40.4105 71.4853 12.5685C43.642 12.5685 28.7936 34.8416 24.1526 48.7633C25.9297 49.119 27.8434 50.1546 29.5812 51.559" fill="white"/>
<path d="M49.4152 31.2756C50.0584 33.6758 52.5255 35.1002 54.9257 34.457C57.3258 33.8139 58.7502 31.3468 58.1071 28.9466C57.464 26.5464 54.9969 25.1221 52.5967 25.7652C50.1965 26.4083 48.7721 28.8754 49.4152 31.2756Z" fill="#E5D0FF"/>
<path fill-rule="evenodd" clip-rule="evenodd" d="M30.4697 35.8653C28.0836 39.7241 25.3772 44.6854 24.1842 48.7633C23.2313 48.3853 23.2654 47.8262 21.4056 47.8184C19.5497 47.8052 16.6714 50.4958 14.3049 51.8345C15.8484 45.9283 19.6297 34.8141 22.4162 34.4833C24.2747 33.915 28.9105 34.8692 30.4697 35.8653Z" fill="#9A79E3"/>
<path fill-rule="evenodd" clip-rule="evenodd" d="M39.6415 44.2969C39.6415 44.2969 27.8435 50.1558 29.5812 51.5602L32.4752 54.4491C33.8888 56.1921 34.9323 58.1135 35.2893 59.8998C45.5898 56.4663 60.4538 47.4377 67.4928 31.6982L39.6415 44.2969Z" fill="#F4EBFF"/>
<path fill-rule="evenodd" clip-rule="evenodd" d="M48.1898 53.6103C44.4032 55.8954 39.3632 58.6896 35.2826 59.8748C35.6593 60.8277 36.2106 60.8028 36.2224 62.6547C36.2303 64.5106 33.537 67.385 32.193 69.7488C38.1032 68.2145 49.224 64.4529 49.56 61.6678C50.131 59.8093 49.1833 55.1709 48.1898 53.6103ZM37.1201 49.7476C38.2318 48.296 39.3474 44.7352 39.3474 44.7352C39.3474 44.7352 35.788 45.8522 34.3363 46.9639C29.2701 50.837 22.2561 61.7977 22.2561 61.7977C22.2561 61.7977 33.2404 54.8099 37.1201 49.7476Z" fill="#9A79E3"/>
<path d="M49.4152 31.2756C50.0584 33.6758 52.5255 35.1002 54.9257 34.457C57.3258 33.8139 58.7502 31.3468 58.1071 28.9466C57.464 26.5464 54.9969 25.1221 52.5967 25.7652C50.1965 26.4083 48.7721 28.8754 49.4152 31.2756Z" stroke="#6941C6" stroke-linecap="round" stroke-linejoin="round"/>
<path fill-rule="evenodd" clip-rule="evenodd" d="M33.617 14.0674C33.4429 14.0674 33.2761 14.1365 33.153 14.2596C33.0299 14.3826 32.9607 14.5496 32.9607 14.7236C32.9607 14.8977 33.0299 15.0646 33.153 15.1876C33.2761 15.3107 33.4429 15.3799 33.617 15.3799H34.2851C34.4591 15.3823 34.6251 15.4538 34.7464 15.5786C34.8678 15.7033 34.9346 15.8713 34.9321 16.0453C34.9297 16.2194 34.8583 16.3853 34.7335 16.5067C34.6087 16.628 34.4408 16.6948 34.2668 16.6924H32.298C31.4108 16.6793 31.4108 18.018 32.298 18.0049H34.9584C35.0446 18.0061 35.1297 18.0242 35.2088 18.0583C35.288 18.0924 35.3597 18.1418 35.4198 18.2036C35.4798 18.2653 35.5272 18.3384 35.5591 18.4185C35.5909 18.4986 35.6067 18.5842 35.6055 18.6703C35.6042 18.7565 35.5861 18.8416 35.552 18.9208C35.5179 18.9999 35.4686 19.0716 35.4068 19.1317C35.345 19.1918 35.2719 19.2391 35.1919 19.2709C35.1118 19.3028 35.0262 19.3186 34.9401 19.3174H33.6105C32.7233 19.3043 32.7233 20.643 33.6105 20.6299H37.5374C38.4247 20.643 38.4247 19.3043 37.5374 19.3174H37.4915C37.3175 19.3148 37.1516 19.2431 37.0303 19.1182C36.9091 18.9933 36.8425 18.8253 36.8451 18.6513C36.8477 18.4772 36.9194 18.3113 37.0443 18.1901C37.1692 18.0689 37.3372 18.0023 37.5112 18.0049H41.4749C42.3622 18.018 42.3622 16.6793 41.4749 16.6924H40.7623C40.6761 16.691 40.591 16.6726 40.5119 16.6384C40.4329 16.6041 40.3613 16.5547 40.3013 16.4928C40.2414 16.4308 40.1941 16.3577 40.1624 16.2776C40.1307 16.1974 40.1152 16.1118 40.1165 16.0256C40.1179 15.9395 40.1363 15.8544 40.1705 15.7753C40.2048 15.6962 40.2542 15.6247 40.3162 15.5647C40.3781 15.5047 40.4512 15.4575 40.5313 15.4258C40.6115 15.3941 40.6971 15.3785 40.7833 15.3799H42.7874C42.9615 15.3799 43.1284 15.3107 43.2515 15.1876C43.3746 15.0646 43.4437 14.8977 43.4437 14.7236C43.4437 14.5496 43.3746 14.3826 43.2515 14.2596C43.1284 14.1365 42.9615 14.0674 42.7874 14.0674H33.6184H33.617ZM36.8379 15.3799H38.2292C38.4032 15.3821 38.5692 15.4535 38.6907 15.5782C38.8121 15.7028 38.8791 15.8706 38.8768 16.0446C38.8746 16.2187 38.8033 16.3847 38.6787 16.5062C38.554 16.6277 38.3862 16.6946 38.2121 16.6924H36.8169C36.6429 16.6896 36.477 16.6178 36.3559 16.4928C36.2348 16.3677 36.1684 16.1997 36.1712 16.0256C36.174 15.8516 36.2458 15.6858 36.3708 15.5647C36.4958 15.4436 36.6639 15.3771 36.8379 15.3799Z" fill="#6941C6"/>
<path fill-rule="evenodd" clip-rule="evenodd" d="M29.6808 14.0687C28.7936 14.0556 28.7936 15.3943 29.6808 15.3812H30.9933C31.8806 15.3943 31.8806 14.0556 30.9933 14.0687H29.6808ZM40.1624 19.3187C39.2751 19.3056 39.2751 20.6443 40.1624 20.6312C41.0496 20.6443 41.0496 19.3056 40.1624 19.3187Z" fill="#6941C6"/>
<path d="M7.57056 76.2128C7.57056 76.2128 11.5488 58.695 18.1349 58.0741C22.7903 57.9088 26.3997 62.0379 25.9206 65.8599C25.2644 72.4513 7.57056 76.2128 7.57056 76.2128Z" stroke="#6941C6"/>
<path fill-rule="evenodd" clip-rule="evenodd" d="M15.7053 68.1503C15.7053 68.1503 16.1188 59.2529 20.244 58.8644C23.1616 58.762 25.4231 61.3488 25.1225 63.7428C24.7117 67.872 15.7053 68.1503 15.7053 68.1503Z" fill="#F4EBFF"/>
<path d="M15.7053 68.1503C15.7053 68.1503 16.1188 59.2529 20.244 58.8644C23.1616 58.762 25.4231 61.3488 25.1225 63.7428C24.7117 67.872 15.7053 68.1503 15.7053 68.1503Z" stroke="#6941C6"/>
<path d="M29.5812 51.559C27.8434 50.1546 25.9297 49.119 24.1526 48.7633C28.7936 34.8416 43.642 12.5685 71.4853 12.5685C71.4853 40.4105 49.2109 55.2602 35.2892 59.9012C34.9322 58.1148 33.8887 56.1934 32.4752 54.4504" stroke="#6941C6" stroke-linecap="round" stroke-linejoin="round"/>
<path d="M30.244 56.2169C31.3688 57.5294 32.2613 58.9785 32.6078 60.7136L30.5196 61.8161L27.2738 58.6136M25.5374 56.9008L22.0107 53.4228L22.9688 51.1901C24.8955 51.6416 26.4666 52.6365 27.8499 53.827M30.4697 35.8653C28.0836 39.7241 25.3772 44.6854 24.1842 48.7633C23.2313 48.3853 23.2654 47.8262 21.4056 47.8184C19.5497 47.8052 16.6714 50.4958 14.3049 51.8345C15.8484 45.9283 19.6297 34.8141 22.4162 34.4833C24.2747 33.915 28.9105 34.8692 30.4697 35.8653ZM48.1898 53.6104C44.4032 55.8954 39.3632 58.6897 35.2827 59.8749C35.6593 60.8277 36.2106 60.8029 36.2224 62.6548C36.2303 64.5107 33.537 67.3851 32.193 69.7489C38.1032 68.2146 49.224 64.453 49.56 61.6679C50.131 59.8094 49.1833 55.1709 48.1898 53.6104Z" stroke="#6941C6" stroke-linecap="round" stroke-linejoin="round"/>
<path d="M55.6106 15.2538C54.701 15.578 53.8059 15.9192 52.937 16.2933L67.7604 31.1167C68.1352 30.2368 68.4819 29.345 68.7999 28.443L55.6106 15.2538Z" fill="#9A79E3"/>
<path d="M55.6106 15.2538C54.7011 15.578 53.806 15.9192 52.9371 16.2933L67.7605 31.1167C68.1353 30.2368 68.4819 29.345 68.8 28.443L55.6106 15.2538ZM37.1201 49.7463C38.2318 48.296 39.3474 44.7352 39.3474 44.7352C39.3474 44.7352 35.788 45.8521 34.3363 46.9638C29.2701 50.837 22.2561 61.7977 22.2561 61.7977C22.2561 61.7977 33.2404 54.8086 37.1201 49.7463Z" stroke="#6941C6" stroke-linecap="round" stroke-linejoin="round"/>
<path fill-rule="evenodd" clip-rule="evenodd" d="M60.8343 52.5092C60.6603 52.5179 60.4968 52.5953 60.3799 52.7246C60.263 52.8538 60.2022 53.0241 60.2109 53.1982C60.2196 53.3722 60.2971 53.5357 60.4263 53.6526C60.5555 53.7695 60.7259 53.8304 60.9 53.8217H61.5654C61.7394 53.8241 61.9054 53.8955 62.0267 54.0203C62.1481 54.1451 62.2149 54.3131 62.2125 54.4871C62.2101 54.6612 62.1385 54.8271 62.0137 54.9485C61.8889 55.0698 61.7211 55.1366 61.547 55.1342H59.5783C58.691 55.121 58.691 56.4598 59.5783 56.4467H62.2387C62.4127 56.4489 62.5788 56.5203 62.7003 56.6449C62.8217 56.7696 62.8887 56.9373 62.8864 57.1114C62.8842 57.2854 62.8128 57.4515 62.6882 57.573C62.5635 57.6945 62.3957 57.7614 62.2216 57.7592H60.8934C60.0062 57.746 60.0062 59.0848 60.8934 59.0717H64.8204C65.7077 59.0848 65.7077 57.746 64.8204 57.7592H64.7744C64.6004 57.7567 64.4344 57.6852 64.3131 57.5604C64.1918 57.4356 64.125 57.2677 64.1274 57.0937C64.1298 56.9196 64.2013 56.7537 64.3261 56.6323C64.4509 56.511 64.6188 56.4442 64.7929 56.4467H68.7579C69.6452 56.4598 69.6452 55.121 68.7579 55.1342H68.0452C67.8712 55.1317 67.7052 55.0602 67.5839 54.9354C67.4625 54.8106 67.3957 54.6427 67.3982 54.4687C67.4006 54.2946 67.472 54.1287 67.5968 54.0073C67.7216 53.886 67.8896 53.8192 68.0636 53.8217H70.0678C70.2418 53.8217 70.4088 53.7525 70.5319 53.6294C70.6549 53.5063 70.724 53.3395 70.724 53.1654C70.724 52.9914 70.6549 52.8244 70.5319 52.7013C70.4088 52.5783 70.2418 52.5092 70.0678 52.5092H60.9013C60.879 52.508 60.8566 52.508 60.8343 52.5092ZM64.1182 53.8217H65.5094C65.5956 53.8228 65.6808 53.8408 65.7599 53.8748C65.8391 53.9089 65.9109 53.9582 65.971 54.0199C66.0312 54.0817 66.0786 54.1546 66.1105 54.2346C66.1424 54.3147 66.1583 54.4002 66.1572 54.4864C66.1561 54.5726 66.1379 54.6577 66.1039 54.7369C66.0699 54.8161 66.0207 54.8878 65.9589 54.948C65.8972 55.0081 65.8242 55.0555 65.7442 55.0875C65.6641 55.1194 65.5786 55.1353 65.4924 55.1342H64.1011C63.9271 55.1319 63.7611 55.0606 63.6396 54.9359C63.5182 54.8112 63.4512 54.6434 63.4535 54.4693C63.4557 54.2953 63.527 54.1293 63.6516 54.0078C63.7763 53.8864 63.9441 53.8194 64.1182 53.8217Z" fill="#6941C6"/>
<path fill-rule="evenodd" clip-rule="evenodd" d="M56.9626 52.509C56.0753 52.4959 56.0753 53.8346 56.9626 53.8215H58.2751C59.1636 53.8346 59.1636 52.4959 58.2751 52.509H56.9626ZM67.4442 57.759C66.5569 57.7459 66.5569 59.0846 67.4442 59.0715C68.3314 59.0846 68.3314 57.7459 67.4442 57.759Z" fill="#6941C6"/>
<path d="M43.8192 8.54041H46.4442M45.1317 7.22791V9.85291M22.5593 12.0934L24.4152 10.2374M22.5593 10.2374L24.4152 12.0934" stroke="#6941C6" stroke-linecap="round" stroke-linejoin="round"/>
<path d="M28.4665 27.8471C28.979 28.3597 29.81 28.3597 30.3226 27.8471C30.8352 27.3345 30.8352 26.5035 30.3226 25.9909C29.81 25.4784 28.979 25.4784 28.4665 25.9909C27.9539 26.5035 27.9539 27.3345 28.4665 27.8471Z" stroke="#6941C6" stroke-linecap="round" stroke-linejoin="round"/>
<path d="M61.8594 65.7942L59.5862 67.1067M61.3791 67.5872L60.0666 65.3139M76.6343 52.6154L74.7784 54.4713M76.6343 54.4713L74.7784 52.6154" stroke="#6941C6" stroke-linecap="round" stroke-linejoin="round"/>
<path d="M65.1694 42.7106C64.4693 42.5229 63.7496 42.9385 63.562 43.6386C63.3743 44.3388 63.7899 45.0585 64.49 45.2461C65.1902 45.4337 65.9099 45.0182 66.0975 44.318C66.2851 43.6179 65.8696 42.8982 65.1694 42.7106Z" stroke="#6941C6" stroke-linecap="round" stroke-linejoin="round"/>
<path d="M50.5944 20.3162C49.3598 20.9916 48.1562 21.7225 46.9876 22.5067C45.8326 23.281 44.7222 24.0986 43.6604 24.9504C42.6087 25.7936 41.5907 26.6781 40.6089 27.6017C39.648 28.5058 38.7208 29.4449 37.829 30.4171L36.5953 31.8582M35.3169 33.3505C35.12 33.5985 34.9231 33.8466 34.7302 34.096M33.6066 35.6001C33.4255 35.8521 33.2457 36.1042 33.0686 36.3562M18.9814 45.6617C19.1127 45.3192 19.2453 44.9792 19.3792 44.6432M20.3281 42.4133C20.4711 42.101 20.6142 41.7965 20.7586 41.5012L21.8375 39.5232C22.6696 38.1818 23.4912 37.309 24.2433 37.2197C24.8379 37.0386 25.716 37.0124 26.6859 37.0938" stroke="#6941C6" stroke-linecap="round" stroke-linejoin="round"/>
</svg>
